<svg width="40" height="38" viewBox="0 0 40 38" fill="none" xmlns="http://www.w3.org/2000/svg">
<path d="M19.9999 2.46069C10.2892 2.46069 2.3999 9.91467 2.3999 19.0897C2.3999 27.4186 8.90193 34.3115 17.3702 35.5134L18.289 35.6448V22.5412H14.1312V19.881H18.289V16.3482C18.289 14.1727 18.8415 12.74 19.7562 11.8411C20.6708 10.9421 22.0223 10.4888 23.903 10.4888C25.4069 10.4888 25.9919 10.5749 26.5483 10.6394V12.8169H24.5905C23.4797 12.8169 22.5683 13.4025 22.0952 14.1825C21.6222 14.9624 21.4749 15.8937 21.4749 16.8427V19.8795H26.3733L25.9374 22.5398H21.4749V35.6655L22.3827 35.5489C30.9714 34.4483 37.5999 27.5 37.5999 19.0897C37.5999 9.91467 29.7107 2.46069 19.9999 2.46069ZM19.9999 3.97242C28.846 3.97242 35.9999 10.7317 35.9999 19.0897C35.9999 26.444 30.4285 32.4925 23.0749 33.8541V24.0515H27.3093L28.239 18.3678H23.0749V16.8427C23.0749 16.0586 23.2268 15.3559 23.4827 14.9339C23.7387 14.5119 23.9854 14.3286 24.5905 14.3286H28.1483V9.27083L27.4546 9.18226C26.9748 9.12091 25.8793 8.97705 23.903 8.97705C21.7405 8.97705 19.8844 9.53363 18.603 10.7929C17.3217 12.0521 16.689 13.9272 16.689 16.3482V18.3692H12.5312V24.053H16.689V33.8068C9.4535 32.3587 3.9999 26.3644 3.9999 19.0897C3.9999 10.7317 11.1539 3.97242 19.9999 3.97242Z" fill="white"/>
</svg>
