<svg width="40" height="38" viewBox="0 0 40 38" fill="none" xmlns="http://www.w3.org/2000/svg">
<path d="M12.7999 2.46069C7.06589 2.46069 2.3999 6.86925 2.3999 12.2869V25.8924C2.3999 31.3101 7.06589 35.7186 12.7999 35.7186H27.1999C32.9339 35.7186 37.5999 31.3101 37.5999 25.8924V12.2869C37.5999 6.86925 32.9339 2.46069 27.1999 2.46069H12.7999ZM12.7999 3.97242H27.1999C32.0691 3.97242 35.9999 7.68636 35.9999 12.2869V25.8924C35.9999 30.493 32.0691 34.2069 27.1999 34.2069H12.7999C7.93072 34.2069 3.9999 30.493 3.9999 25.8924V12.2869C3.9999 7.68636 7.93072 3.97242 12.7999 3.97242ZM29.5999 8.50759C29.1756 8.50759 28.7686 8.66686 28.4685 8.95036C28.1685 9.23387 27.9999 9.61838 27.9999 10.0193C27.9999 10.4202 28.1685 10.8048 28.4685 11.0883C28.7686 11.3718 29.1756 11.531 29.5999 11.531C30.0243 11.531 30.4312 11.3718 30.7313 11.0883C31.0313 10.8048 31.1999 10.4202 31.1999 10.0193C31.1999 9.61838 31.0313 9.23387 30.7313 8.95036C30.4312 8.66686 30.0243 8.50759 29.5999 8.50759ZM19.9999 10.7752C15.1493 10.7752 11.1999 14.5066 11.1999 19.0897C11.1999 23.6727 15.1493 27.4041 19.9999 27.4041C24.8505 27.4041 28.7999 23.6727 28.7999 19.0897C28.7999 14.5066 24.8505 10.7752 19.9999 10.7752ZM19.9999 12.2869C23.9858 12.2869 27.1999 15.3236 27.1999 19.0897C27.1999 22.8557 23.9858 25.8924 19.9999 25.8924C16.014 25.8924 12.7999 22.8557 12.7999 19.0897C12.7999 15.3236 16.014 12.2869 19.9999 12.2869Z" fill="white"/>
</svg>
