<svg width="40" height="38" viewBox="0 0 40 38" fill="none" xmlns="http://www.w3.org/2000/svg">
<path d="M19.5218 6.99585C14.2405 6.99585 9.28115 7.37378 6.64053 7.90229C4.88115 8.28022 3.35928 9.41402 3.04053 11.1531C2.72178 12.966 2.3999 15.6883 2.3999 19.0896C2.3999 22.491 2.71865 25.1365 3.11865 27.0262C3.44053 28.6885 4.95928 29.8991 6.71865 30.277C9.52178 30.8055 14.3187 31.1834 19.5999 31.1834C24.8812 31.1834 29.678 30.8055 32.478 30.277C34.2405 29.8991 35.7593 28.7653 36.078 27.0262C36.3999 25.1365 36.7999 22.4172 36.878 19.0158C36.878 15.6144 36.478 12.8922 36.078 11.0025C35.7593 9.3402 34.2405 8.12964 32.478 7.75171C29.678 7.37378 24.7999 6.99585 19.5218 6.99585ZM19.5218 8.50757C25.2812 8.50757 29.9187 8.95932 32.1593 9.33725C33.3593 9.64137 34.3187 10.3972 34.478 11.3804C34.9593 13.7986 35.278 16.3703 35.278 19.0158C35.1999 22.2637 34.7999 24.9092 34.478 26.7988C34.2405 28.2338 32.6405 28.6885 32.1593 28.842C29.278 29.3705 24.478 29.7455 19.678 29.7455C14.878 29.7455 9.9999 29.4444 7.1999 28.842C5.9999 28.5379 5.04053 27.7821 4.88115 26.7988C4.24053 24.6818 3.9999 21.8857 3.9999 19.0896C3.9999 15.6115 4.32178 13.0427 4.64053 11.4572C4.88115 10.0193 6.55928 9.5646 6.95928 9.41402C9.5999 8.8855 14.4812 8.50757 19.5218 8.50757ZM15.1999 13.0427V25.1365L26.3999 19.0896L15.1999 13.0427ZM16.7999 15.6144L23.1999 19.0896L16.7999 22.5648V15.6144Z" fill="white"/>
</svg>
